<?xml version="1.0" encoding="UTF-8" standalone="no"?>
<svg
   xmlns:dc="http://purl.org/dc/elements/1.1/"
   xmlns:cc="http://creativecommons.org/ns#"
   xmlns:rdf="http://www.w3.org/1999/02/22-rdf-syntax-ns#"
   xmlns:svg="http://www.w3.org/2000/svg"
   xmlns="http://www.w3.org/2000/svg"
   xmlns:sodipodi="http://sodipodi.sourceforge.net/DTD/sodipodi-0.dtd"
   xmlns:inkscape="http://www.inkscape.org/namespaces/inkscape"
   inkscape:export-ydpi="300"
   inkscape:export-xdpi="300"
   inkscape:export-filename="D:\pauld\Talks\Sizes of Infinity\WestonHouse6.png"
   sodipodi:docname="WestonHouse6.svg"
   inkscape:version="1.0 (4035a4fb49, 2020-05-01)"
   id="svg8"
   version="1.1"
   viewBox="0 0 100 100"
   height="100mm"
   width="100mm">
  <defs
     id="defs2" />
  <sodipodi:namedview
     inkscape:snap-page="true"
     inkscape:window-maximized="1"
     inkscape:window-y="-8"
     inkscape:window-x="-8"
     inkscape:window-height="1002"
     inkscape:window-width="1920"
     inkscape:object-nodes="false"
     inkscape:snap-others="false"
     showgrid="false"
     inkscape:document-rotation="0"
     inkscape:current-layer="layer1"
     inkscape:document-units="mm"
     inkscape:cy="167.64983"
     inkscape:cx="155.72962"
     inkscape:zoom="0.98994949"
     inkscape:pageshadow="2"
     inkscape:pageopacity="0"
     borderopacity="1.0"
     bordercolor="#666666"
     pagecolor="#000000"
     id="base" />
  <metadata
     id="metadata5">
    <rdf:RDF>
      <cc:Work
         rdf:about="">
        <dc:format>image/svg+xml</dc:format>
        <dc:type
           rdf:resource="http://purl.org/dc/dcmitype/StillImage" />
        <dc:title></dc:title>
      </cc:Work>
    </rdf:RDF>
  </metadata>
  <g
     id="layer1"
     inkscape:groupmode="layer"
     inkscape:label="Layer 1">
    <g
       style="fill:#e0e0e0;fill-opacity:1"
       id="g873">
      <g
         aria-label="W  H"
         id="text835"
         style="font-size:50.8px;line-height:1.25;font-family:sans-serif;letter-spacing:0px;word-spacing:0px;stroke-width:0.146779;fill:#e0e0e0;fill-opacity:1"
         transform="matrix(2.4474995,0,0,1.3276125,-75.298503,3.4169739)">
        <path
           d="m 51.277787,6.1351694 -7.9375,27.7068356 H 41.044163 L 37.557508,23.308282 C 37.259852,22.183803 36.987001,21.266029 36.738953,20.554961 36.490907,19.843894 36.24286,19.289922 35.994813,18.893047 35.746766,18.479636 35.473914,18.173711 35.176258,17.975274 34.895138,17.7603 34.481727,17.578399 33.936024,17.429571 v -1.21543 h 8.894171 v 1.21543 c -1.02526,0.198437 -1.744596,0.496094 -2.158008,0.892969 -0.396875,0.396875 -0.595313,0.950846 -0.595313,1.661914 0,0.578776 0.01649,1.310435 0.223243,2.058789 l 1.87435,5.895246 7.987109,-28.12851464 h 3.880149 L 60.515748,27.963294 c 1.71536,-5.826738 1.719007,-5.835229 1.753803,-7.433137 0,-1.008724 -0.214974,-1.736328 -0.644922,-2.182813 -0.413411,-0.446484 -1.107943,-0.752408 -2.083594,-0.917773 v -1.21543 h 8.911929 v 1.21543 c -0.496094,0.165365 -0.892969,0.355534 -1.190625,0.570508 -0.297657,0.198438 -0.587045,0.479557 -0.868164,0.843359 -0.264583,0.347266 -0.56224,0.892969 -0.892969,1.637109 -0.314193,0.744141 -0.686263,1.744597 -1.116211,3.001368 l -3.001083,10.36009 h -3.260031 z"
           style="font-style:normal;font-variant:normal;font-weight:normal;font-stretch:normal;font-size:50.8px;font-family:Cambria;-inkscape-font-specification:Cambria;stroke-width:0.146779;fill:#e0e0e0;fill-opacity:1"
           id="path837"
           sodipodi:nodetypes="ccccscccccccscccccccccccccccccc" />
      </g>
      <path
         d="m 74.514239,89.235719 c 0,1.378645 0.03564,2.412628 0.106944,3.101951 0.0713,0.689323 0.190145,1.247911 0.356549,1.675765 0.166387,0.404086 0.368428,0.736862 0.606129,0.99833 0.237691,0.261467 0.570466,0.499164 0.998328,0.713091 0.451627,0.213929 1.140946,0.43974 2.067965,0.677437 V 98.14937 H 64.344227 v -1.747077 c 1.307337,-0.332775 2.222476,-0.701205 2.745418,-1.105291 0.522931,-0.404086 0.879476,-1.022099 1.069638,-1.85404 0.213924,-0.831941 0.320889,-2.234355 0.320889,-4.207243 V 74.296441 H 31.555451 v 14.939278 c 0,1.592573 0.04754,2.75729 0.14262,3.494151 0.118853,0.736862 0.297122,1.31922 0.534819,1.747075 0.261468,0.427856 0.629898,0.784402 1.105292,1.069639 0.499165,0.285237 1.29545,0.570474 2.388858,0.855709 V 98.14937 H 21.349815 v -1.747077 c 1.473724,-0.380315 2.460168,-0.796285 2.959332,-1.24791 0.499166,-0.475394 0.820057,-1.140946 0.962676,-1.996657 0.166387,-0.855711 0.249579,-2.163046 0.249579,-3.922007 v -30.84123 c 0,-1.640111 -0.05943,-2.828597 -0.178271,-3.56546 -0.118853,-0.760631 -0.320891,-1.342989 -0.606129,-1.747074 -0.261466,-0.427856 -0.618012,-0.760633 -1.069637,-0.99833 -0.451625,-0.261466 -1.224142,-0.546703 -2.31755,-0.85571 v -1.747076 h 14.377224 v 1.747076 c -1.045868,0.261467 -1.806499,0.522933 -2.281894,0.784401 -0.451625,0.261467 -0.820056,0.594244 -1.105293,0.998329 -0.261468,0.380315 -0.46351,0.962675 -0.606129,1.747076 -0.118852,0.784402 -0.178272,1.996657 -0.178272,3.636768 v 12.621729 h 36.92475 V 58.394489 c 0,-2.067966 -0.106968,-3.482265 -0.320891,-4.242898 -0.190159,-0.760631 -0.522939,-1.342988 -0.998341,-1.747073 -0.475391,-0.404086 -1.414295,-0.796287 -2.816713,-1.176603 V 49.480839 H 78.65018 v 1.747076 c -1.331103,0.332776 -2.258124,0.713092 -2.781066,1.140948 -0.522931,0.404086 -0.879477,1.022099 -1.069637,1.854039 -0.190159,0.831941 -0.285239,2.22247 -0.285239,4.171587 z"
         style="font-style:normal;font-variant:normal;font-weight:normal;font-stretch:normal;font-size:50.8px;line-height:1.25;font-family:Cambria;-inkscape-font-specification:Cambria;letter-spacing:0px;word-spacing:0px;stroke-width:0.264583;fill:#e0e0e0;fill-opacity:1"
         id="path839"
         sodipodi:nodetypes="sscscccccscsccscccccccccssccccccccccsccscscccccsss" />
    </g>
    <text
       id="text845"
       y="59.974384"
       x="40.970524"
       style="font-size:27.85px;line-height:1.25;font-family:sans-serif;letter-spacing:0px;word-spacing:0px;fill:#9e9e9e;stroke-width:0.264583;fill-opacity:1;"
       xml:space="preserve"><tspan
         style="fill:#9e9e9e;stroke-width:0.264583;fill-opacity:1;"
         y="59.974384"
         x="40.970524"
         id="tspan843"
         sodipodi:role="line">6</tspan></text>
    <text
       id="text877"
       y="-32.874149"
       x="-29.934189"
       style="font-style:normal;font-variant:normal;font-weight:normal;font-stretch:normal;font-size:25.4px;line-height:1.25;font-family:'Kunstler Script';-inkscape-font-specification:'Kunstler Script';letter-spacing:0px;word-spacing:0px;stroke-width:0.264583"
       xml:space="preserve"><tspan
         style="font-style:normal;font-variant:normal;font-weight:normal;font-stretch:normal;font-family:'Bradley Hand ITC';-inkscape-font-specification:'Bradley Hand ITC';fill:#ffffff;stroke-width:0.264583"
         y="-32.874149"
         x="-29.934189"
         id="tspan875"
         sodipodi:role="line">Weston House 6</tspan></text>
  </g>
</svg>
