<?xml version="1.0" encoding="UTF-8" standalone="no"?>
<svg
   xmlns:dc="http://purl.org/dc/elements/1.1/"
   xmlns:cc="http://creativecommons.org/ns#"
   xmlns:rdf="http://www.w3.org/1999/02/22-rdf-syntax-ns#"
   xmlns:svg="http://www.w3.org/2000/svg"
   xmlns="http://www.w3.org/2000/svg"
   xmlns:sodipodi="http://sodipodi.sourceforge.net/DTD/sodipodi-0.dtd"
   xmlns:inkscape="http://www.inkscape.org/namespaces/inkscape"
   width="100mm"
   height="100mm"
   viewBox="0 0 100 100"
   version="1.1"
   id="svg1548"
   inkscape:version="1.0 (4035a4fb49, 2020-05-01)"
   sodipodi:docname="WestonHouse6_bis_alt.svg">
  <defs
     id="defs1542" />
  <sodipodi:namedview
     id="base"
     pagecolor="#000000"
     bordercolor="#666666"
     borderopacity="1.0"
     inkscape:pageopacity="0"
     inkscape:pageshadow="2"
     inkscape:zoom="1.4"
     inkscape:cx="-30.852422"
     inkscape:cy="142.21033"
     inkscape:document-units="mm"
     inkscape:current-layer="layer1"
     inkscape:document-rotation="0"
     showgrid="false"
     inkscape:window-width="1920"
     inkscape:window-height="1002"
     inkscape:window-x="-8"
     inkscape:window-y="-8"
     inkscape:window-maximized="1"
     inkscape:snap-smooth-nodes="false"
     inkscape:object-nodes="false" />
  <metadata
     id="metadata1545">
    <rdf:RDF>
      <cc:Work
         rdf:about="">
        <dc:format>image/svg+xml</dc:format>
        <dc:type
           rdf:resource="http://purl.org/dc/dcmitype/StillImage" />
        <dc:title></dc:title>
      </cc:Work>
    </rdf:RDF>
  </metadata>
  <g
     inkscape:label="Layer 1"
     inkscape:groupmode="layer"
     id="layer1">
    <g
       aria-label="H"
       id="text2117"
       style="font-size:31.3584px;line-height:1.25;font-family:sans-serif;letter-spacing:0px;word-spacing:0px;stroke-width:0.244814"
       transform="matrix(1.0807529,0,0,1.0807529,-0.55381269,-8.0407067)">
      <path
         id="path2162"
         style="font-style:normal;font-variant:normal;font-weight:normal;font-stretch:normal;font-size:87.1067px;font-family:'Bradley Hand ITC';-inkscape-font-specification:'Bradley Hand ITC';fill:#ffffff;stroke-width:0.92528"
         d="m 235.59766,163.83008 c 0.20495,0.40988 0.30664,0.71692 0.30664,0.92187 v 0.3086 c -0.92225,0 -4.66252,-5.99519 -11.22071,-17.98438 l -5.3789,-13.52539 -3.84375,-3.38281 c -0.61483,-3.79145 -1.33062,-6.50694 -2.15039,-8.14649 l -2.45899,-5.22656 -3.53711,-17.521482 -2.76562,-1.845704 c -0.61483,-3.791453 -1.22892,-6.249764 -1.84375,-7.376953 l -2,-3.380859 0.61523,-4.458984 -7.83789,-19.519532 -0.92383,-9.683594 0.92383,-8.146484 -0.61523,-4.458984 c -1.63955,-0.409887 -4.04799,-2.509329 -7.22461,-6.300782 h -5.07227 c 0.20495,0.204944 0.30664,0.511989 0.30664,0.921876 0,1.127188 -1.79239,2.817888 -5.3789,5.072265 l -1.07617,6.455078 c -0.30742,1.74202 -0.71812,2.972152 -1.23047,3.689453 l -2.76563,3.689454 v 5.99414 c -1.53707,1.84449 -2.8689,2.767578 -3.99609,2.767578 h -2.61328 l -3.07422,5.685547 h -2.15235 c -0.7173,3.58651 -1.9973,6.405645 -3.84179,8.455078 l -3.38282,0.306641 v 0.769531 c 0,2.356848 -2.09944,4.661638 -6.30078,6.916016 -1.63954,0.307416 -2.9215,1.537549 -3.84375,3.689453 l -2.15234,2.919922 v 0.921875 c 0,1.024715 -1.48535,1.537109 -4.45703,1.537109 l -0.92188,2.767578 c -3.99639,0.512361 -6.09778,3.176019 -6.30273,7.992184 l -4.45703,1.84571 -2.15235,5.07226 -6.91601,7.22266 -1.23047,5.6875 c -4.40628,2.76674 -6.60938,4.50926 -6.60938,5.22656 v 2.91992 c -2.1519,2.25438 -3.43191,3.99691 -3.84179,5.22657 l -1.23047,3.84375 -5.378908,6.60937 h -2.458984 c -0.512358,0.7173 -1.896013,3.688 -4.15039,8.91406 l -3.578884,9.83698 1.682259,12.78046 0.879046,6.66381 v 7.23438 l 1.929688,12.85937 -1.929688,7.55469 0.964844,12.21875 1.607422,3.21484 -2.894531,-1.2871 c 0.428676,2.14337 0.642578,3.80552 0.642578,4.98437 0,4.39392 -1.124458,9.8592 -3.375,16.39648 l -7.554688,4.98243 0.642578,9.48437 5.626954,3.37695 c 6.866903,-0.47568 19.771484,-3.85937 19.771484,-3.85937 3.10789,-0.96452 6.75206,-1.44531 10.93164,-1.44531 l 2.57227,0.96484 0.32031,-2.25195 c 2.67922,1.50036 4.66319,2.30494 5.94922,2.41211 l 3.85742,0.48242 2.73242,-2.57227 3.21484,1.92969 8.19922,-1.92969 5.62696,4.17969 2.08984,-4.50195 5.14258,1.28711 c 0.85735,0 2.51949,-0.48275 4.98437,-1.44727 2.57205,-0.96452 4.4481,-1.44726 5.62696,-1.44726 1.50036,0 3.69629,0.53573 6.58984,1.60742 l 1.60742,-0.64258 15.11133,1.92969 12.85938,-4.3418 c 1.28602,-0.42867 2.73426,-0.64258 4.34179,-0.64258 0.85735,0 2.40962,0.21391 4.66016,0.64258 2.25054,0.32151 5.19806,-0.42813 8.8418,-2.25 l 3.21484,1.28711 2.73437,-1.92969 1.60743,1.92969 6.26953,-2.25195 c 8.0014,0.64262 8.0014,0.64262 8.0014,0.64262 l 6.70364,-2.94721 c 0.40433,-5.2501 0,0 0.40433,-5.2501 l 1.92969,-26.36328 -0.64258,-5.30469 2.41016,-6.5918 -1.76758,-4.66211 v -4.17968 l -2.89453,-8.51953 0.42105,-4.78179 -0.18941,-3.99009 -1.46602,-0.35508 -0.37304,-2.24023 v -2.7793 l -0.44727,0.0957 -0.65234,-3.91992 c -7.99414,-8.76172 0,0 -8.30078,-9.68359 z m -53.1836,-99.601564 v 1.689453 c 0,3.893924 1.9997,8.812499 5.9961,14.755859 l -0.61524,2.152344 5.07227,11.375 2.45898,12.296878 3.22852,2.15039 0.61328,5.22656 c 0.20494,1.33213 0.71733,2.61409 1.53711,3.84375 l 2.15234,3.22656 c 1.53708,2.15191 2.66551,4.56035 3.38281,7.22461 l 2.15039,6.45508 c 0.92225,3.17662 2.05069,5.63689 3.38282,7.37891 l 3.38086,7.99218 6.30273,5.53321 0.30664,8.91601 5.46588,8.38961 2.26548,6.48135 c -0.16823,1.46747 -0.19258,2.62701 -0.89347,3.16615 -1.39319,1.07169 -2.08984,2.412 -2.08984,4.01953 0,0.64302 0.2139,1.60656 0.64258,2.89258 l 6.59179,19.45117 -2.25,5.30469 2.25,14.14649 -1.60742,5.30468 1.60742,7.23438 -1.60742,1.92968 2.89258,4.66211 -14.4668,-0.96484 -35.84765,3.85742 -1.28711,-0.32226 c -0.75018,0 -1.76671,0.32183 -3.05274,0.96484 -1.17885,-0.32151 -4.2343,-0.74931 -9.16406,-1.28516 l -2.25,-1.60742 -2.41211,2.89258 c -0.96452,-0.42868 -2.62471,-0.64258 -4.98242,-0.64258 l -12.69922,0.64258 h -5.62695 c -1.17886,-0.85735 -2.19734,-1.28516 -3.05469,-1.28516 -1.28602,0 -1.92773,0.74964 -1.92773,2.25 v 0.80469 l -6.26954,-3.05469 -7.23437,0.64258 -5.30469,-0.64258 -8.51953,1.28516 -3.53711,-1.28516 h -6.91211 c 0.96452,-5.35843 1.50026,-9.64626 1.60742,-12.86132 l 2.25,-3.21485 -2.25,-5.30468 c 2.35772,-13.39609 3.53711,-21.86188 3.53711,-25.39844 0,-1.50036 -0.10791,-2.57184 -0.32226,-3.21485 -1.07169,-0.53584 -1.60742,-1.66225 -1.60742,-3.37695 0,-0.75018 -0.5762,-2.73039 -0.086,-8.21509 l -0.23629,-4.16186 c -0.0118,-2.99491 0.10255,-4.92146 -0.94484,-6.95376 0.0102,-2.17423 -1.0162,-2.12321 -0.55907,-3.7689 l 0.16045,-2.06407 -0.0574,-2.5183 c -1.22966,-1.33213 -1.02495,-1.71962 -1.02495,-3.56411 v -0.92383 l -0.61524,-1.68945 c 0,-1.22966 0.8214,-2.25445 2.46094,-3.07422 0.61483,-2.66427 1.68949,-5.07271 3.22656,-7.22461 l 2.15235,-6.30274 2.76758,-1.22851 v -3.84375 l 3.53515,-1.22852 c 0.40989,-0.10247 0.92228,-1.69147 1.53711,-4.76562 1.74202,-3.48404 2.9702,-5.53361 3.6875,-6.14844 0.81978,-0.61483 2.76765,-2.10018 5.8418,-4.45703 l 7.53125,-11.99024 7.22461,-9.52929 3.53515,-3.226566 c 0.92225,-0.819774 2.3059,-2.35695 4.1504,-4.611328 1.84449,-2.35685 3.32984,-3.945853 4.45703,-4.765625 1.22966,-0.819774 2.51161,-1.230469 3.84375,-1.230469 0.81977,-0.512357 2.2533,-1.331795 4.30273,-2.458984 2.15191,-1.229662 3.22852,-2.715014 3.22852,-4.457031 v -0.306641 c 5.12358,-4.303813 8.60668,-6.917598 10.45117,-7.839844 l 3.53515,-3.228515 c 1.63955,-3.58651 3.17673,-5.685951 4.61133,-6.300781 z"
         transform="scale(0.26458333)"
         sodipodi:nodetypes="cscccccccccccccccccscccccscccccscccscccccccsccccccccccccccccccccccccssccccccccccccsccccsccccccccccccccccccscccsssccccccccccccccccssccccccccccccccccccssccccccccccscsccccccsccccccccccccccccccs" />
    </g>
    <g
       aria-label="W"
       id="text2117-5"
       style="font-size:29.984px;line-height:1.25;font-family:sans-serif;letter-spacing:0px;word-spacing:0px;stroke-width:0.264583" />
    <text
       xml:space="preserve"
       style="font-size:30.7402px;line-height:1.25;font-family:sans-serif;letter-spacing:0px;word-spacing:0px;stroke-width:0.264583"
       x="39.572441"
       y="52.318649"
       id="text2117-5-6"
       transform="scale(0.95838923,1.0434174)"><tspan
         id="tspan2137-5"
         sodipodi:role="line"
         x="39.572441"
         y="52.318649"
         style="font-style:normal;font-variant:normal;font-weight:normal;font-stretch:normal;font-size:30.7425px;font-family:'Bradley Hand ITC';-inkscape-font-specification:'Bradley Hand ITC';fill:#ffffff;stroke-width:0.264583">6</tspan></text>
  </g>
</svg>
